<svg xmlns="http://www.w3.org/2000/svg" width="800" height="800" viewBox="0 0 800 800">
  <defs>
    <style>
      .cls-1 {
        fill: #212121;
        fill-rule: evenodd;
      }
    </style>
  </defs>
  <g id="アートボード_1" data-name="アートボード 1">
    <path id="_1周年おめでとう_ございます_" data-name="1周年おめでとう ございます!!" class="cls-1" d="M41.739,578.727v-80.5h-13.2L8.944,508.24l3.407,11.286,13.842-7.24h0.213v66.441H41.739Zm94.014-31.943H94.334v35.137H105.94v-5.963h29.813V546.784Zm-11.819,19.485H105.94v-9.8h17.994v9.8ZM74.423,493.653V530.6c0,15.758-.852,36.2-11.5,50.15a47.95,47.95,0,0,1,10.328,8.2c11.925-15.439,13.842-40.673,13.842-58.242V505.471h56.646v68.784c0,2.555-.32,2.555-7.986,2.555-2.556,0-5.43-.106-8.2-0.213a48.248,48.248,0,0,1,3.94,11.819c18.953,0.213,25.128-1.384,25.128-14.055V493.653h-82.2ZM90.394,540.4h49.4V530.387H120.846v-6.815h16.823v-9.689H120.846v-4.472c1.81-.426,2.556-0.958,2.662-2.023l-14.8-.852v7.347H92.63v9.689h16.078v6.815H90.394V540.4Zm142.671,13.1V537.308h28.429V525.382H233.065v-12.99h30.772V500.041h-60.8c0.958-2.129,1.917-4.153,2.768-6.282a2.9,2.9,0,0,0,2.982-1.278L193.35,487.69c-4.792,13.842-13.523,28.109-22.893,36.2a74.647,74.647,0,0,1,10.222,8.731,97.241,97.241,0,0,0,15.759-20.231h23.424v12.99h-31.41v28.11H171.416V565.95h48.446v22.572h13.2V565.95H269.8V553.492H233.065Zm-31.836-16.184h18.633v16.184H201.229V537.308Zm135.857-33.753a77.67,77.67,0,0,1-16.291,3.939c0.213-4.9.426-9.8,0.745-13.948,1.7-.213,2.768-1.171,2.768-2.449l-16.823-.426v18.1c-7.027.319-14.906,0.426-23.744,0.426l0.213,12.777c8.625,0,16.5-.106,23.531-0.532V539.65a70.975,70.975,0,0,0-13.522,7.56c-7.986,5.856-12.884,13.309-12.884,20.55,0,12.99,10.541,18.207,19.805,18.207,13.1,0,19.378-8.625,19.378-18.42V546.464a73.238,73.238,0,0,1,20.018-3.62c11.393,0,17.568,6.069,17.568,14.587,0,8.2-4.578,14.268-13.2,14.268-4.9,0-9.476-2.449-13.416-7.24a76.452,76.452,0,0,1-6.6,10.222c5.75,6.708,12.564,9.476,19.911,9.476,18.207,0,26.938-11.287,26.938-26.726,0-17.142-13.416-25.98-30.878-25.98-5.537,0-13.1,1.385-20.337,3.514,0-4.472.107-9.583,0.107-14.587a110.666,110.666,0,0,0,18.42-3.62Zm37.9,12.138c-5.963-5.217-15.759-10.648-25.022-13.842l-6.5,11.074c8.518,3.3,18.207,8.837,23.957,14.161Zm-67.4,51.321c0,5.111-2.769,7.56-7.134,7.56-4.685,0-7.24-2.768-7.24-7.134,0-7.134,8.092-11.925,14.267-15.652C307.592,558.07,307.592,564.352,307.592,567.014Zm137.666-76.343c-0.958,8.092-2.236,15.759-3.726,22.573a19.78,19.78,0,0,0-2.556-.106c-13.1,0-20.975,3.62-22.679,4.365-1.065-5.75-2.023-11.712-2.768-17.675a2.883,2.883,0,0,0,2.236-2.449l-15.865.426c1.384,8.838,2.981,17.356,5,25.235-10.754,7.347-18.207,18.846-18.207,33.54,0,12.244,6.814,21.188,17.888,21.188,7.027,0,14.267-2.874,21.082-8.518,1.171,1.384,2.449,2.662,3.62,3.833l9.263-9.369a42.346,42.346,0,0,1-3.833-3.727c6.282-7.879,11.926-18.527,16.61-31.836,9.69,3.407,15.546,11.393,15.546,21.934,0,13.735-11.819,20.549-31.836,23.637a78.479,78.479,0,0,1,6.282,11.5c26.512-4.366,39.4-16.4,39.4-35.457,0-17.462-10.009-29.494-25.448-33.966,1.6-5.962,3.3-12.777,4.579-19.591a2.567,2.567,0,0,0,2.555-1.7Zm-26.193,38.544a34.874,34.874,0,0,1,16.4-3.939,22.365,22.365,0,0,1,2.662.106c-3.195,9.9-6.921,17.675-11.074,23.638C423.644,543.27,421.2,536.562,419.065,529.215Zm-13.2,36.1c-4.259,0-6.814-4.153-6.814-9.9a26.3,26.3,0,0,1,9.476-19.7c2.769,9.051,5.963,17.037,9.9,23.638C414.806,562.542,410.547,565.311,405.862,565.311Zm90.818-48.553c0.958-.213,2.342-0.959,2.555-1.81,9.8-1.065,34.392-2.982,47.6-4.153-15.972,11.18-27.9,28-27.9,40.993,0,18.421,11.925,31.2,42.164,34.818l6.6-13.31c-23.318-2.449-34.072-9.476-34.072-21.614s14.48-26.832,26.193-34.605c8.411-5.962,13.629-6.814,23.1-6.5l-0.213-14.374c-17.994.852-63.992,3.727-76.237,4.578-2.981.213-7.879,0.32-11.18,0.32Zm76.556,4.9a75.343,75.343,0,0,1,12.67,14.48l6.176-4.9c-2.768-4.684-8.2-10.434-12.99-14.267Zm-12.671,9.582c3.833,3.3,10.222,10.435,12.564,14.588l6.282-5a71.232,71.232,0,0,0-12.99-14.374Zm116.478-15.971c-10.86,3.727-21.082,7.56-30.133,11.606-1.81-5.111-2.448-12.99-2.448-23.531,0-2.662,0-5.537.106-8.625,2.342-.319,3.407-1.171,3.514-2.768l-18.953-1.491c-0.106,23,1.065,34.818,5,42.484-15.758,8.518-25.767,17.888-25.767,29.068,0,18.314,16.4,23.425,37.267,23.425,6.069,0,26.512-.426,38.757-2.023l-1.278-13.629c-11.5,2.023-27.9,2.875-37.8,2.875-14.693,0-23-3.2-23.105-11.18C622.1,550.085,645.952,538.585,678,529.961a4.666,4.666,0,0,0,2.449.639,3.6,3.6,0,0,0,1.065-.107Zm52.167-12.138c13.309,0.852,30.665,3.833,41.951,7.773l3.62-13.523c-10.967-3.514-27.257-6.175-42.164-7.027Zm-8.731,38.97c1.064-.426,2.342-1.6,2.236-2.662,13.735-5.324,27.9-8.731,37.053-8.731,8.625,0,12.884,5.43,12.884,13.948,0,13.2-13.736,24.49-38.97,30.665a72.35,72.35,0,0,1,9.05,11.713c29.387-8.838,44.72-22.467,44.826-43.123,0.107-18.846-12.457-26.193-27.044-26.193-8.518,0-28.749,4.472-45.253,8.944ZM155.448,656.766c6.389-5.218,19.592-14.055,34.818-16.717L189.2,626.313c-15.652,2.875-34.5,3.2-54.2,3.2-2.875,0-5.431,0-7.454-.107,0.213,2.982.32,9.8,0.32,13.1,8.944,0.106,24.063-.213,29.494-1.065v0.107a114.052,114.052,0,0,0-13.629,9.369Zm55.793-4.153a72.225,72.225,0,0,0-13.309-13.522l-5.537,5a79.059,79.059,0,0,1,13.1,13.735ZM199.529,663.9a71.009,71.009,0,0,0-13.416-13.735l-5.537,5c3.94,3.2,10.541,9.9,12.99,13.842Zm-4.791,28.642a182.415,182.415,0,0,1-32.795,2.875c-10.86,0-26.086,0-26.086-12.67,0-4.792,2.874-10.116,7.772-14.907l-11.5-5.111c-5.75,5.963-10.009,14.055-10.009,22.36,0,9.689,5.856,18.74,19.592,21.828,4.472,0.958,12.883,1.49,22.147,1.49a219.833,219.833,0,0,0,31.942-2.129Zm105.724-74.852a79.626,79.626,0,0,1,10.86,13.522l6.389-4.791A75.538,75.538,0,0,0,306.424,613Zm-16.93,1.81a75.174,75.174,0,0,1,10.541,12.99l6.708-4.472c-2.555-4.365-6.708-8.837-11.073-12.777Zm23.744,12.777c-9.05,2.769-21.082,4.579-32.8,5.43a121.553,121.553,0,0,1-1.916-15.545c1.81-.426,2.768-1.491,2.875-2.768l-18-.426c0.959,6.921,1.81,13.629,3.088,19.591-3.3.213-7.347,0.426-10.967,0.426-12.458,0-20.337-.213-26.406-0.426l0.107,12.671c7.134,0.213,20.017.319,26.3,0.319,5.324,0,9.8-.106,14.055-0.426,1.917,6.6,4.472,12.671,7.027,16.291a79.966,79.966,0,0,0-10.86-1.065L263.3,677.1c13.309,0,18.952,3.94,23,7.454l9.69-11.287c-9.477-4.365-14.588-12.244-18.1-23.105,11.18-.958,23.531-2.555,31.836-4.685Zm-16.5,67.506c-5.536.319-11.819,0.532-20.337,0.532-15.013,0-25.554-2.875-25.554-10.754,0-3.3,1.491-6.6,5.643-10.115l-10.221-7.56c-6.069,6.282-9.157,11.712-9.157,18.207,0,13.1,13.1,23,38.97,23,7.879,0,14.161,0,19.485-.106Zm39.39-72.191a248.719,248.719,0,0,0-1.917,30.452c0,4.366.213,8.518,0.426,12.351,1.065,17.356,9.157,37.906,25.661,37.906,9.8,0,16.716-8.092,21.827-25.554a69.6,69.6,0,0,1-10.86-8.518c-2.343,8.837-6.815,19.485-10.435,19.485-5.962,0-12.777-8.412-12.777-31.837a166.782,166.782,0,0,1,2.768-29.28,3.166,3.166,0,0,0,2.769-1.811ZM421.2,677.528a59.192,59.192,0,0,0-30.772-43.655l-8.412,10.009c13.1,7.773,21.934,19.166,25.129,38.331Zm17.242-34.817c6.6,0,17.356.213,24.7,0.213,3.407,0,7.133,0,10.434-.107l0.639,15.12c-2.023.106-3.94,0.106-5.75,0.106-10.647,0-12.031-.852-12.031-2.555,0-1.6,2.661-3.514,6.5-5.217l-9.051-4.685c-7.773,4.685-11.073,8.731-11.073,13.2-0.107,7.879,8.944,10.008,23.424,10.221,2.449,0,5.431,0,8.305-.106,0.107,3.833.32,7.453,0.32,10.647a43.269,43.269,0,0,0-8.2-.638c-12.883,0-24.276,6.388-24.276,17.142,0,10.115,9.583,17.036,23.744,17.036,14.906,0,22.04-5.962,22.253-14.693V695.31a88.41,88.41,0,0,1,20.231,13.735l8.092-11.606a104.863,104.863,0,0,0-28.749-15.013c-0.213-3.833-.532-8.624-0.638-13.842,10.008-.532,20.656-1.6,27.683-3.087l-1.065-11.819A216.606,216.606,0,0,1,487.1,657.3c-0.107-4.9-.213-9.8-0.213-14.8,12.883-.639,23.531-1.491,33.539-3.194l-1.277-12.352c-10.222,2.13-21.295,2.982-32.262,3.621V620.99c1.7-.32,2.661-1.065,2.768-2.236l-16.61-.746c0,3.195.106,8.412,0.213,12.99-3.195.107-6.708,0.213-10.115,0.213-7.986,0-18.208,0-24.7-.426v11.926Zm36.841,51.853c0,5.111-2.769,7.773-9.051,7.773-6.921,0-12.138-2.236-12.138-6.5,0-4.152,5-6.921,11.606-6.921a38.826,38.826,0,0,1,9.476,1.491Zm64.624-49.3c1.7-.106,36.841-1.384,44.72-1.49,0.106,2.129.319,7.985,0.319,9.05a16.525,16.525,0,0,0-6.921-1.6,20.511,20.511,0,0,0-20.549,20.656,19.076,19.076,0,0,0,18.952,19.379,9.473,9.473,0,0,0,5.856-2.023h0.107c-3.727,6.6-12.458,12.138-23.957,16.077a66.071,66.071,0,0,1,9.9,10.542c16.078-5.963,25.767-16.185,30.133-27.258,1.6-3.514,2.236-9.051,2.236-14.055,0-2.875-.107-7.879-1.6-12.138l-0.639-18.953c7.879-.213,15.439-0.319,21.827-0.319,4.579,0,8.625,0,11.713.106V630.679c-5.75.106-19.7,0.426-33.647,0.852-0.106-4.366-.213-8.944-0.106-11.5a3.4,3.4,0,0,0,2.875-2.342l-17.569-.852c0.426,4.792.639,13.416,0.639,15.013-7.666.213-15.226,0.426-20.23,0.639-8.306.213-17.675,0.32-24.383,0.532Zm38.331,35.67a8.937,8.937,0,0,1-8.731-9.157c0.107-6.282,4.153-9.9,9.157-10.009,8.092,0,8.092,7.453,8.092,9.8C586.755,676.889,583.561,680.936,578.237,680.936Zm84.216-56.326h-16.61l2.129,56.006h12.352Zm-8.3,83.051c5.75,0,9.37-4.153,9.37-9.689,0-5.75-3.833-9.8-9.37-9.8-5.43,0-9.37,4.046-9.37,9.8C644.778,703.4,648.4,707.661,654.148,707.661Zm38.436-83.051h-16.61l2.129,56.006h12.351Zm-8.3,83.051c5.749,0,9.37-4.153,9.37-9.689,0-5.75-3.833-9.8-9.37-9.8-5.43,0-9.37,4.046-9.37,9.8C674.909,703.4,678.529,707.661,684.279,707.661Z"/>
  </g>
</svg>
